<svg xmlns="http://www.w3.org/2000/svg" fill="#fff" viewBox="0 0 24 24" width="24" height="24">
  <path d="M12 2.163c3.204 0 3.584.012 4.85.07 1.366.062 
2.633.344 3.608 1.319.975.975 1.257 2.242 1.319 
3.608.058 1.266.07 1.646.07 4.84s-.012 3.575-.07 
4.84c-.062 1.366-.344 2.633-1.319 3.608-.975.975-2.242 
1.257-3.608 1.319-1.266.058-1.646.07-4.85.07s-3.584-.012-4.85-.07c-1.366-.062-2.633-.344-3.608-1.319C2.513 
19.484 2.231 18.217 2.169 16.851 2.111 15.585 2.099 15.205 
2.099 12s.012-3.575.07-4.84c.062-1.366.344-2.633 
1.319-3.608.975-.975 2.242-1.257 3.608-1.319C8.416 
2.175 8.796 2.163 12 2.163zm0-2.163C8.736 0 8.332.014 
7.052.072 5.773.13 4.731.367 3.88 1.218c-.851.851-1.088 
1.893-1.146 3.172C2.676 5.668 2.662 6.072 2.662 
9.336v5.328c0 3.264.014 3.668.072 4.948.058 1.279.295 
2.321 1.146 3.172.851.851 1.893 1.088 3.172 
1.146 1.28.058 1.684.072 4.948.072s3.668-.014 
4.948-.072c1.279-.058 2.321-.295 3.172-1.146.851-.851 
1.088-1.893 1.146-3.172.058-1.28.072-1.684.072-4.948V9.336c0-3.264-.014-3.668-.072-4.948-.058-1.279-.295-2.321-1.146-3.172C19.27.367 18.228.13 16.949.072 15.668.014 
15.264 0 12 0z"/>
  <path d="M12 5.838A6.162 6.162 0 0 0 5.838 12 
6.162 6.162 0 0 0 12 18.162 6.162 6.162 0 0 0 18.162 
12 6.162 6.162 0 0 0 12 5.838zm0 10.162A3.999 
3.999 0 1 1 16 12a3.999 3.999 0 0 1-4 4zM18.406 
4.594a1.44 1.44 0 1 0 0 2.88 1.44 1.44 0 0 0 
0-2.88z"/>
</svg>
